:SAMPLES-PER-SECOND 30
:FULLY-SPECIFIED
:DEGREES
120
root  1.66283 39.1885 13.8715 -173.393 20.4609 -179.432
RightUpLeg  -23.2162 15.1231 -7.33429
RightLeg  20.5474 7.82175 3.0229
RightFoot  -4.06871 -0.301347 4.30964
RightToes  -1.33073e-015 0 -3.6325e-017
Spine  22.8378 -2.41697 -7.74694
Spine1  3.11387 -4.43905 2.17337
HEad  8.5274 16.608 -0.535979
LeftShoulder1  6.10549 -16.0725 -24.9786
LeftArm  4.50608 -48.6619 -80.0278
LeftForeArm  67.4966 5.04898 -1.37286
LeftHand  -0.246645 0.021 5.37786
RightShoulder  9.01638 17.0113 37.8712
RightArm  -11.3333 34.1872 53.663
RightForeArm  8.63923 11.637 6.91342
RightHand  -0.24729 -0.0210522 -5.37781
LeftUpLeg  -9.29726 24.8164 13.9214
LeftLeg  15.6116 5.20482 0.910072
LeftFoot  -4.26324 0.953541 -14.9369
LeftToes  5.09284e-011 3.02203e-011 3.83118e-011
121
root  1.67223 39.1395 13.7958 -173.347 23.1504 -179.216
RightUpLeg  -23.7988 16.5779 -7.23985
RightLeg  20.9185 8.87919 3.52355
RightFoot  -3.98202 -0.296792 4.21177
RightToes  -1.33073e-015 0 -3.6325e-017
Spine  22.5016 -3.20146 -9.78355
Spine1  3.01033 -5.63078 2.31169
HEad  8.40385 20.2687 -0.804402
LeftShoulder1  6.04327 -16.0161 -24.7398
LeftArm  6.84052 -51.1416 -81.8453
LeftForeArm  70.8903 4.93634 -1.47813
LeftHand  -0.246645 0.021 5.37786
RightShoulder  8.89958 16.9192 37.5113
RightArm  -11.346 34.3792 53.7937
RightForeArm  5.48187 14.8853 6.0347
RightHand  -0.24729 -0.0210522 -5.37781
LeftUpLeg  -8.46979 26.3337 14.3446
LeftLeg  16.3439 5.9804 1.423
LeftFoot  -4.96358 0.893404 -15.426
LeftToes  5.09284e-011 3.02203e-011 3.83118e-011
122
root  1.66378 39.0884 13.7043 -173.359 25.8481 -178.982
RightUpLeg  -24.2736 18.0046 -7.14537
RightLeg  21.3022 9.96997 4.05542
RightFoot  -3.95936 -0.29547 4.16857
RightToes  -1.33073e-015 0 -3.6325e-017
Spine  22.2819 -4.06826 -11.8006
Spine1  2.75069 -6.89734 2.45717
HEad  8.32718 24.0375 -0.861664
LeftShoulder1  5.96253 -15.9895 -24.3502
LeftArm  9.53923 -53.6589 -84.3396
LeftForeArm  74.471 4.79272 -1.47531
LeftHand  -0.246645 0.021 5.37786
RightShoulder  8.7165 16.766 36.9564
RightArm  -12.0023 34.6459 54.146
RightForeArm  3.17454 18.5369 5.11409
RightHand  -0.24729 -0.0210522 -5.37781
LeftUpLeg  -7.52127 27.9176 14.8029
LeftLeg  17.0987 6.68343 1.93402
LeftFoot  -5.71497 0.817056 -15.8479
LeftToes  5.09284e-011 3.02203e-011 3.83118e-011
123
root  1.64389 39.0396 13.6071 -173.432 28.5417 -178.783
RightUpLeg  -24.6597 19.2658 -7.06095
RightLeg  21.6959 11.2073 4.66768
RightFoot  -3.95435 -0.288232 4.03815
RightToes  -1.33073e-015 0 -3.6325e-017
Spine  22.1185 -4.87143 -14.0087
Spine1  2.51938 -8.19807 2.92566
HEad  8.28987 27.6881 -0.794786
LeftShoulder1  5.87344 -15.9779 -23.8889
LeftArm  13.5794 -56.3779 -87.9369
LeftForeArm  77.3427 4.72432 -1.77307
LeftHand  -0.246645 0.021 5.37786
RightShoulder  8.4588 16.5461 36.1665
RightArm  -14.9073 34.8868 54.3215
RightForeArm  3.99998 23.0247 4.76959
RightHand  -0.24729 -0.0210522 -5.37781
LeftUpLeg  -6.42032 29.4857 15.2629
LeftLeg  17.7446 7.41751 2.42585
LeftFoot  -6.44048 0.737918 -16.2535
LeftToes  5.09284e-011 3.02203e-011 3.83118e-011
124
root  1.61929 38.9908 13.5035 -173.481 31.2251 -178.571
RightUpLeg  -25.0427 20.4896 -6.98359
RightLeg  22.1103 12.4608 5.30911
RightFoot  -3.93431 -0.275394 3.82551
RightToes  -1.33073e-015 0 -3.6325e-017
Spine  21.9109 -5.60272 -16.2884
Spine1  2.37203 -9.47868 3.66353
HEad  8.20612 31.1252 -0.879718
LeftShoulder1  5.78752 -15.9694 -23.4382
LeftArm  19.5156 -59.1962 -93.033
LeftForeArm  78.7372 4.78613 -2.49081
LeftHand  -0.246645 0.021 5.37786
RightShoulder  8.18919 16.3105 35.3281
RightArm  -20.0252 35.1485 53.9659
RightForeArm  8.01993 28.2338 5.66178
RightHand  -0.24729 -0.0210522 -5.37781
LeftUpLeg  -5.25817 31.0792 15.7637
LeftLeg  18.3277 8.11773 2.88976
LeftFoot  -7.1394 0.65886 -16.6991
LeftToes  5.09284e-011 3.02203e-011 3.83118e-011
125
root  1.59158 38.943 13.3867 -173.434 33.8396 -178.296
RightUpLeg  -25.454 21.8465 -6.92405
RightLeg  22.4991 13.505 5.86915
RightFoot  -3.91661 -0.26748 3.69413
RightToes  -1.33073e-015 0 -3.6325e-017
Spine  21.684 -6.38274 -18.3217
Spine1  2.15732 -10.7269 4.32307
HEad  8.07072 34.4634 -1.16432
LeftShoulder1  5.66915 -15.9467 -22.8323
LeftArm  26.6255 -61.687 -99.4339
LeftForeArm  79.243 4.89419 -3.26608
LeftHand  -0.246645 0.021 5.37786
RightShoulder  7.95856 16.0927 34.6239
RightArm  -24.1886 35.4921 53.2372
RightForeArm  11.0523 33.8795 6.91863
RightHand  -0.24729 -0.0210522 -5.37781
LeftUpLeg  -4.11936 32.6718 16.3168
LeftLeg  18.8878 8.74497 3.31817
LeftFoot  -7.81003 0.578641 -17.1499
LeftToes  5.09284e-011 3.02203e-011 3.83118e-011
126
root  1.56345 38.9026 13.2614 -173.322 36.3639 -177.986
RightUpLeg  -25.8388 23.2973 -6.89334
RightLeg  22.7848 14.3609 6.32924
RightFoot  -3.90304 -0.269234 3.71767
RightToes  -1.33073e-015 0 -3.6325e-017
Spine  21.5524 -7.22862 -20.079
Spine1  1.73525 -11.9503 4.83363
HEad  7.95996 37.8351 -1.50689
LeftShoulder1  5.48396 -15.894 -21.9047
LeftArm  35.0737 -63.6594 -107.47
LeftForeArm  79.8971 4.98812 -4.00006
LeftHand  -0.246645 0.021 5.37786
RightShoulder  7.72871 15.8477 33.9599
RightArm  -27.5305 35.8628 52.3147
RightForeArm  13.1085 39.8061 8.51068
RightHand  -0.24729 -0.0210522 -5.37781
LeftUpLeg  -2.95413 34.1655 16.8971
LeftLeg  19.3336 9.39986 3.69725
LeftFoot  -8.39447 0.504665 -17.5547
LeftToes  5.09284e-011 3.02203e-011 3.83118e-011
127
root  1.54099 38.8687 13.1416 -173.213 38.8632 -177.674
RightUpLeg  -26.1593 24.665 -6.84733
RightLeg  23.0011 15.2742 6.8014
RightFoot  -3.86766 -0.271674 3.75686
RightToes  -1.33073e-015 0 -3.6325e-017
Spine  21.5565 -7.99976 -21.8007
Spine1  1.13142 -13.114 5.48616
HEad  7.87458 41.1612 -1.88925
LeftShoulder1  5.25315 -15.7962 -20.7846
LeftArm  45.0853 -64.9858 -116.882
LeftForeArm  80.1913 5.13195 -4.94869
LeftHand  -0.246645 0.021 5.37786
RightShoulder  7.4254 15.5129 33.0757
RightArm  -30.6908 36.2859 51.2865
RightForeArm  16.0411 46.0131 10.4844
RightHand  -0.24729 -0.0210522 -5.37781
LeftUpLeg  -1.67088 35.5654 17.5171
LeftLeg  19.6216 10.1332 4.02813
LeftFoot  -8.87202 0.442594 -17.9555
LeftToes  5.09284e-011 3.02203e-011 3.83118e-011
128
root  1.52796 38.8304 13.034 -173.099 41.3594 -177.351
RightUpLeg  -26.4693 25.8945 -6.75401
RightLeg  23.2691 16.3281 7.35938
RightFoot  -3.82394 -0.266045 3.67591
RightToes  -1.33073e-015 0 -3.6325e-017
Spine  21.6186 -8.62615 -23.5563
Spine1  0.449078 -14.1742 6.40905
HEad  7.74513 44.2505 -2.33764
LeftShoulder1  4.98519 -15.6105 -19.5678
LeftArm  56.3565 -65.613 -127.511
LeftForeArm  78.8815 5.357 -5.98265
LeftHand  -0.246645 0.021 5.37786
RightShoulder  7.03661 15.0872 31.8814
RightArm  -33.8988 36.8655 50.0654
RightForeArm  20.4942 52.2324 12.9013
RightHand  -0.24729 -0.0210522 -5.37781
LeftUpLeg  -0.319059 36.9706 18.2035
LeftLeg  19.8729 10.8389 4.33557
LeftFoot  -9.3094 0.384155 -18.3984
LeftToes  5.09284e-011 3.02203e-011 3.83118e-011
129
root  1.5241 38.7847 12.9363 -172.915 43.7517 -176.994
RightUpLeg  -26.8352 27.1169 -6.66304
RightLeg  23.5959 17.3071 7.91225
RightFoot  -3.81853 -0.25729 3.55162
RightToes  -1.33073e-015 0 -3.6325e-017
Spine  21.667 -9.22586 -25.1882
Spine1  -0.27573 -15.1659 7.37183
HEad  7.60399 47.1006 -2.66468
LeftShoulder1  4.63648 -15.3102 -18.0211
LeftArm  67.7705 -65.3967 -138.69
LeftForeArm  76.4495 5.59301 -6.80604
LeftHand  -0.246645 0.021 5.37786
RightShoulder  6.61043 14.5983 30.5414
RightArm  -36.9708 37.5678 48.4085
RightForeArm  25.3503 58.2424 16.0504
RightHand  -0.24729 -0.0210522 -5.37781
LeftUpLeg  0.946352 38.3679 18.9111
LeftLeg  20.1815 11.4574 4.64844
LeftFoot  -9.74282 0.322729 -18.8247
LeftToes  5.09284e-011 3.02203e-011 3.83118e-011
130
root  1.52719 38.739 12.8504 -172.658 45.9474 -176.619
RightUpLeg  -27.2533 28.4454 -6.63472
RightLeg  23.8935 18.0209 8.34376
RightFoot  -3.85832 -0.254808 3.52998
RightToes  -1.33073e-015 0 -3.6325e-017
Spine  21.6861 -9.89081 -26.6793
Spine1  -0.999978 -16.1615 8.26434
HEad  7.50651 49.8643 -2.74868
LeftShoulder1  4.22137 -14.9639 -16.0875
LeftArm  78.5062 -64.377 -149.078
LeftForeArm  74.7714 5.80106 -7.66802
LeftHand  -0.246645 0.021 5.37786
RightShoulder  6.16832 14.0357 29.1725
RightArm  -39.9326 38.3284 46.1686
RightForeArm  30.6119 64.008 20.4362
RightHand  -0.24729 -0.0210522 -5.37781
LeftUpLeg  2.0524 39.5865 19.5528
LeftLeg  20.5027 12.1155 4.98936
LeftFoot  -10.1194 0.266627 -19.1929
LeftToes  5.09284e-011 3.02203e-011 3.83118e-011
